#!OML:ASF F:\VICON\USERDATA\INSTALL\Justin_Nancy\Justin_Nancy.ASF
:FULLY-SPECIFIED
:DEGREES
405
root 1.49573 17.2356 9.55067 64.7618 84.0894 62.6798
lowerback 7.3763 0.0804477 -6.94328
upperback 0.542346 -0.421712 0.735878
thorax -3.52321 -0.0902353 4.71972
lowerneck -17.623 -3.71725 -8.84536
upperneck 22.7685 -3.40918 3.78198
head 10.4459 -1.80899 2.35561
rclavicle 2.23633e-015 1.55052e-014
rhumerus -32.7505 -14.9327 -79.5485
rradius 27.8298
rwrist 10.5574
rhand -13.454 10.9619
rfingers 7.12502
rthumb 12.6555 -18.6347
lclavicle 2.23633e-015 1.55052e-014
lhumerus -28.5913 5.44987 86.0049
lradius 39.6152
lwrist -1.80511
lhand -18.1734 24.8083
lfingers 7.12502
lthumb 8.10295 54.6329
rfemur -29.1287 2.66292 12.2752
rtibia 15.7047
rfoot -7.44617 -5.04959
rtoes 1.77731
lfemur 6.57112 -2.57112 -32.5007
ltibia 16.6635
lfoot -16.371 -1.6828
ltoes 1.30843
406
root 1.62166 17.231 9.5929 72.0107 84.4334 69.7784
lowerback 7.2994 -0.168024 -7.046
upperback 0.456804 -0.755043 0.855892
thorax -3.52242 -0.251744 4.93715
lowerneck -17.4994 -3.66414 -8.83322
upperneck 22.6958 -3.30923 3.63316
head 10.3867 -1.77961 2.31482
rclavicle 5.36719e-015 1.90833e-014
rhumerus -32.7289 -14.2021 -79.5355
rradius 27.7037
rwrist 10.0853
rhand -13.9297 10.6619
rfingers 7.12502
rthumb 12.1969 -18.9625
lclavicle 5.36719e-015 1.90833e-014
lhumerus -28.312 5.66596 85.9889
lradius 39.5336
lwrist -1.48388
lhand -18.561 24.8013
lfingers 7.12502
lthumb 7.72889 54.6401
rfemur -29.2435 2.24733 12.4268
rtibia 16.0059
rfoot -7.21095 -4.98411
rtoes 0.844228
lfemur 6.91136 -2.85306 -32.1765
ltibia 16.4932
lfoot -16.1801 -2.36644
ltoes -0.0382604
407
root 1.75684 17.2286 9.6019 68.1958 84.5084 66.1117
lowerback 7.3418 -0.0637084 -6.64873
upperback 0.50337 -0.582732 0.916516
thorax -3.52401 -0.173095 4.75882
lowerneck -17.5196 -3.74996 -9.24091
upperneck 22.7517 -3.3626 3.84369
head 10.428 -1.8147 2.45088
rclavicle -6.11263e-015 -2.38542e-015
rhumerus -32.8549 -14.0803 -79.1888
rradius 27.6666
rwrist 10.3852
rhand -13.83 10.6266
rfingers 7.12502
rthumb 12.293 -18.9921
lclavicle -6.11263e-015 -2.38542e-015
lhumerus -28.1486 5.83654 85.9947
lradius 39.5922
lwrist -1.25404
lhand -19.5483 25.3031
lfingers 7.12502
lthumb 6.77591 55.1746
rfemur -29.3361 2.34271 12.7963
rtibia 16.8738
rfoot -7.28141 -3.89914
rtoes 3.07881
lfemur 7.82829 -3.11106 -32.1045
ltibia 16.053
lfoot -15.8 -1.9129
ltoes -0.925695
408
root 1.88925 17.2302 9.62234 66.0585 84.6665 64.2166
lowerback 7.64592 0.0384047 -6.30958
upperback 0.466417 -0.441497 0.889427
thorax -3.75428 -0.0994698 4.52784
lowerneck -17.542 -3.85425 -9.40651
upperneck 23.0247 -3.4993 4.01595
head 10.5492 -1.87218 2.52411
rclavicle 2.5842e-015 -8.74653e-015
rhumerus -33.1286 -14.5303 -78.9813
rradius 27.5524
rwrist 10.8459
rhand -13.571 10.6986
rfingers 7.12502
rthumb 12.5427 -18.9049
lclavicle 2.5842e-015 -8.74653e-015
lhumerus -28.127 5.41199 85.9322
lradius 39.618
lwrist -0.995128
lhand -19.9185 25.7496
lfingers 7.12502
lthumb 6.41849 55.6323
rfemur -28.9967 2.75465 13.052
rtibia 17.3528
rfoot -7.21134 -3.3579
rtoes 5.24943
lfemur 8.47333 -2.98061 -31.767
ltibia 16.1952
lfoot -15.6165 -2.29712
ltoes -0.626106
409
root 2.02852 17.2306 9.6521 66.0836 84.6989 64.4207
lowerback 7.77217 0.0167839 -6.37765
upperback 0.490427 -0.481882 0.928877
thorax -3.79412 -0.116984 4.61353
lowerneck -17.6262 -3.81799 -9.53839
upperneck 23.1718 -3.41896 4.08987
head 10.6174 -1.83844 2.58601
rclavicle -6.01324e-015 4.77083e-015
rhumerus -33.0912 -14.5293 -78.9888
rradius 27.3179
rwrist 10.821
rhand -13.6431 10.6834
rfingers 7.12502
rthumb 12.4732 -18.9244
lclavicle -6.01324e-015 4.77083e-015
lhumerus -28.0044 5.37941 85.8139
lradius 39.5471
lwrist -0.691911
lhand -20.0373 25.6846
lfingers 7.12502
lthumb 6.30381 55.5708
rfemur -28.7701 2.7239 13.3022
rtibia 18.0667
rfoot -6.92189 -2.69979
rtoes 4.01716
lfemur 9.10802 -3.2751 -31.7228
ltibia 16.2859
lfoot -15.2754 -2.40503
ltoes -0.719105
